<?xml version="1.0" standalone="no"?>
<!DOCTYPE svg PUBLIC "-//W3C//DTD SVG 20010904//EN"
 "http://www.w3.org/TR/2001/REC-SVG-20010904/DTD/svg10.dtd">
<svg version="1.0" xmlns="http://www.w3.org/2000/svg"
 width="1257.000000pt" height="1280.000000pt" viewBox="0 0 1257.000000 1280.000000"
 preserveAspectRatio="xMidYMid meet">
<metadata>
Created by potrace 1.15, written by Peter Selinger 2001-2017
</metadata>
<g transform="translate(0.000000,1280.000000) scale(0.100000,-0.100000)"
fill="#000000" stroke="none">
<path d="M6706 12789 c-3 -8 -7 -108 -9 -224 -3 -212 -13 -275 -43 -275 -7 0
-56 51 -107 113 -118 140 -189 207 -257 242 -57 29 -141 47 -162 34 -10 -6
-13 -57 -13 -221 -1 -125 -5 -220 -11 -231 -9 -16 -18 -9 -74 54 -149 168
-434 378 -467 345 -3 -2 3 -35 12 -73 14 -56 16 -99 12 -248 -3 -99 -6 -181
-6 -183 -1 -2 -16 8 -33 21 -155 115 -584 315 -613 285 -4 -3 3 -25 15 -48 26
-50 43 -131 65 -300 9 -69 18 -135 21 -147 5 -20 1 -18 -32 13 -117 108 -396
204 -591 204 -70 0 -143 -20 -143 -40 0 -10 49 -76 161 -216 101 -127 136
-180 165 -249 16 -38 13 -37 -51 33 -128 139 -309 217 -550 237 -112 10 -250
-14 -293 -50 -1 -1 20 -39 48 -84 27 -44 72 -116 98 -158 26 -43 56 -90 66
-105 l18 -27 -57 30 c-163 89 -515 162 -670 140 -65 -10 -95 -19 -95 -30 0
-20 68 -102 186 -222 123 -125 149 -159 125 -159 -4 0 -108 34 -229 75 -260
88 -373 117 -462 118 -61 1 -119 -17 -134 -41 -3 -5 33 -52 79 -105 115 -133
215 -278 215 -313 0 -17 -122 11 -264 60 -226 79 -351 109 -466 110 -52 1
-107 -2 -122 -7 l-27 -7 58 -93 c96 -151 221 -370 221 -384 0 -22 -91 20 -275
127 -259 151 -340 184 -410 166 l-26 -7 30 -37 c39 -48 73 -133 105 -260 14
-55 26 -103 26 -106 0 -3 -21 10 -46 29 -106 81 -345 173 -475 182 l-76 6 -7
-35 c-3 -19 -27 -63 -51 -99 -25 -35 -51 -81 -57 -101 -6 -21 -17 -38 -23 -38
-7 0 -61 32 -121 71 -182 118 -320 179 -406 179 -25 0 -28 -4 -28 -31 0 -72
-73 -305 -100 -319 -33 -18 -110 -11 -199 19 -47 16 -99 31 -116 32 l-30 4 -3
-70 c-10 -217 92 -470 257 -636 122 -122 232 -162 661 -239 365 -65 480 -97
670 -185 215 -99 368 -136 639 -155 240 -16 470 2 1018 81 323 46 366 55 479
108 155 73 232 130 528 391 307 271 434 356 623 420 77 25 123 33 270 45 265
22 355 39 738 145 458 126 502 134 805 136 136 0 285 7 335 14 264 37 695 -32
847 -136 79 -55 70 -115 -31 -205 -56 -50 -257 -159 -293 -159 -10 0 -50 16
-88 35 -209 105 -478 141 -675 90 -140 -36 -295 -138 -401 -263 -98 -115 -156
-215 -256 -443 -13 -29 -31 -44 -90 -74 -279 -144 -541 -390 -758 -710 -94
-139 -264 -431 -326 -559 -34 -72 -88 -203 -119 -291 -77 -218 -101 -270 -133
-286 -19 -9 -97 -15 -247 -19 -213 -6 -222 -7 -280 -33 -90 -42 -120 -70 -191
-177 -82 -125 -152 -188 -279 -251 -153 -75 -228 -92 -420 -93 -138 -1 -171 2
-239 22 -132 38 -227 94 -322 189 -91 92 -154 127 -313 177 -272 85 -535 70
-719 -41 -67 -41 -161 -128 -192 -178 -13 -22 -36 -38 -67 -50 -85 -32 -196
-92 -259 -139 -72 -54 -112 -101 -184 -216 -32 -51 -85 -117 -135 -165 -105
-103 -130 -152 -129 -255 0 -64 5 -84 32 -137 17 -34 36 -64 41 -67 6 -4 -3
-33 -19 -69 -116 -256 -77 -535 93 -658 47 -34 78 -37 117 -9 38 27 62 88 115
300 25 101 48 187 51 192 3 4 13 4 23 -2 14 -7 20 -27 25 -82 4 -40 17 -100
28 -133 20 -62 136 -264 151 -265 17 0 193 169 217 209 28 45 33 47 82 27 27
-12 37 -24 47 -58 16 -54 54 -129 94 -188 31 -44 134 -162 148 -168 4 -2 13
14 19 34 7 20 38 73 68 118 58 85 101 175 102 214 0 18 5 22 34 22 32 0 34 -2
40 -47 4 -27 20 -79 36 -118 l30 -69 -28 -31 c-16 -16 -38 -44 -50 -61 l-22
-32 23 -6 c12 -3 52 -6 88 -6 47 0 70 -4 79 -15 7 -9 11 -17 9 -19 -2 -1 -43
-15 -91 -29 -127 -40 -255 -107 -320 -170 -48 -46 -96 -113 -86 -122 3 -3 255
9 432 20 l99 6 -68 -73 c-37 -40 -87 -102 -111 -138 -40 -61 -73 -144 -62
-155 2 -3 45 4 94 15 49 11 94 20 100 20 7 0 13 -26 17 -63 2 -34 11 -80 19
-103 l15 -41 -95 -102 -94 -101 -58 0 c-107 0 -118 -5 -136 -67 -9 -30 -19
-79 -23 -109 -4 -30 -10 -55 -12 -57 -2 -2 -32 -27 -67 -55 -35 -29 -66 -52
-70 -52 -11 0 -60 65 -77 102 -8 18 -28 70 -45 114 -17 45 -44 100 -60 123
-33 45 -94 81 -137 81 -39 0 -96 -50 -124 -107 -32 -65 -30 -170 4 -318 21
-92 41 -224 42 -284 0 -33 -23 -18 -39 23 l-17 45 -42 -26 c-153 -98 -193
-161 -207 -333 -5 -60 -17 -117 -31 -155 -21 -52 -24 -77 -24 -195 l0 -135 49
-90 c153 -282 284 -423 481 -520 175 -85 342 -124 575 -132 264 -9 432 19 797
133 385 120 502 144 703 144 94 0 154 -6 243 -25 365 -76 554 -59 1232 109 99
24 215 52 258 60 69 15 90 25 174 85 151 108 302 177 478 217 108 25 437 30
673 10 257 -22 372 -8 548 65 165 69 326 189 598 445 238 225 318 297 396 356
54 41 68 48 90 41 43 -14 153 -8 215 12 90 29 249 113 395 209 173 114 179
116 224 106 110 -25 89 -74 -101 -231 -73 -61 -142 -122 -153 -136 -53 -67
-91 -268 -110 -573 -27 -436 -49 -480 -371 -723 -131 -98 -288 -276 -388 -440
-201 -329 -244 -616 -116 -783 l27 -36 57 57 c78 79 192 133 401 189 193 51
225 64 400 151 73 36 134 64 136 62 3 -2 -4 -53 -15 -113 -27 -154 -44 -336
-45 -494 -1 -168 17 -254 121 -580 41 -129 78 -243 82 -253 5 -15 35 13 152
145 387 435 430 510 554 977 19 74 38 137 40 140 7 7 216 -103 287 -151 31
-21 83 -68 115 -105 32 -36 195 -208 363 -380 l304 -314 28 54 c52 103 69 188
75 357 3 118 0 188 -14 294 l-19 138 45 -5 c82 -10 144 -35 269 -107 122 -70
208 -110 238 -110 14 0 15 10 9 73 -23 237 -147 512 -308 683 l-78 83 32 17
c25 12 50 15 108 12 65 -4 98 -14 223 -66 81 -34 159 -64 173 -68 29 -7 29
-15 -1 111 -45 187 -210 409 -398 537 -77 53 -227 123 -296 138 -63 13 -117
39 -176 84 -91 68 -113 139 -70 231 27 60 47 87 168 232 207 248 362 542 437
834 80 310 82 660 7 958 -14 53 -27 137 -30 188 -6 118 -29 208 -77 309 -82
172 -245 348 -491 529 -75 55 -137 102 -137 105 0 3 27 21 61 40 81 46 217
175 272 258 123 186 197 416 213 660 6 92 7 95 22 72 61 -93 186 -207 215
-197 6 2 16 23 24 48 15 51 62 323 62 358 0 21 8 16 68 -41 44 -41 100 -80
158 -110 137 -71 202 -76 223 -17 27 78 1 361 -47 517 l-20 62 34 0 c63 0 229
-38 386 -89 87 -28 165 -51 174 -51 26 0 12 92 -28 193 -80 198 -206 354 -343
424 -140 71 -365 133 -487 133 -30 0 -57 2 -60 5 -2 3 11 78 29 167 60 284 47
457 -44 631 -46 86 -150 199 -242 261 -95 63 -249 136 -398 187 -68 23 -123
46 -123 53 0 6 5 29 10 51 14 56 14 277 0 361 -7 38 -32 157 -57 264 -24 107
-65 305 -89 440 -90 490 -166 717 -293 876 -52 65 -87 82 -192 89 -139 10
-126 -5 -125 142 1 115 -1 134 -23 181 -30 66 -114 145 -170 160 -60 15 -120
-2 -201 -57 l-45 -31 -7 64 c-11 89 -39 148 -103 215 -71 75 -156 116 -218
106 -94 -15 -181 -74 -219 -149 l-21 -41 -11 46 c-26 100 -112 205 -208 253
-64 32 -143 35 -205 6 -57 -25 -124 -95 -155 -159 l-25 -54 -7 35 c-3 20 -24
63 -46 97 -83 129 -206 212 -314 213 -98 1 -132 -42 -166 -209 -11 -53 -22
-98 -23 -100 -2 -1 -21 22 -43 53 -81 114 -247 222 -355 231 -58 6 -59 5 -98
-33 -32 -33 -45 -58 -71 -142 -17 -56 -35 -102 -38 -102 -4 0 -13 9 -20 20 -6
11 -53 67 -103 125 -118 137 -234 236 -334 285 -88 44 -171 62 -179 39z
m-3266 -7054 c9 -11 6 -23 -20 -60 -17 -25 -43 -71 -57 -101 -14 -30 -27 -54
-29 -52 -8 8 71 228 82 228 6 0 17 -7 24 -15z m-580 -241 l0 -66 -37 6 c-21 3
-62 8 -90 12 -56 6 -60 12 -47 62 5 17 14 22 38 23 17 0 49 6 71 14 65 21 65
21 65 -51z m-405 -334 c-11 -5 -27 -9 -35 -9 -13 -1 -13 0 0 9 8 5 24 9 35 9
l20 0 -20 -9z"/>
</g>
</svg>
